# xmcd
#
# Track frame offsets:
#	300
#	3028
#	9331
#	25824
#	37795
#	46908
#	53134
#	56209
#	60074
#	63895
#	66348
#	71621
#	78722
#	82179
#	87096
#	93929
#	101456
#	106427
#	108301
#	115412
#	116785
#	123328
#	127707
#	136916
#	141910
#	143902
#	147939
#	153692
#	157867
#	161010
#	168091
#	172202
#	173732
#	176205
#	178222
#	180712
#	186573
#	189448
#	192393
#	197794
#	202451
#	210477
#	215212
#	219158
#	230107
#	235616
#	244859
#	247153
#	249248
#	252281
#	255022
#	257819
#	262348
#	264825
#	266438
#	272425
#	274823
#	278014
#	297327
#	304241
#	307050
#	308977
#	311378
#	316585
#	318650
#
# Disc length: 4344 seconds
#
# Revision: 0
# Processed by: cddbd v1.5.1PL2 Copyright (c) Steve Scherf et al.
# Submitted via: dBpowerAMP V4.0
#
DISCID=c110f441
DTITLE=Various Artist - TV Sets - Episode 5 [CD9)
DYEAR=2002
DGENRE=TV Themes
TTITLE0=The Abbott and Costello Show
TTITLE1=The Addams Family
TTITLE2=The Adventure Game
TTITLE3=The Adventures Of He-Man
TTITLE4=Ally McBeal
TTITLE5=Allo 'Allo
TTITLE6=American Gothic
TTITLE7=Andromeda
TTITLE8=Angel
TTITLE9=Animal Hospital
TTITLE10=Animaniacs
TTITLE11=Asterix
TTITLE12=The Atom Ant Show
TTITLE13=Bananas In Pjamas
TTITLE14=Battle Of The Planets
TTITLE15=Battlestar Galactica
TTITLE16=Bear In The Big Blue House
TTITLE17=Beavis And Butthead
TTITLE18=Beverly Hills 90210
TTITLE19=Big Brother
TTITLE20=BJ And The Bear
TTITLE21=Boot Camp
TTITLE22=Brideshead Revisited
TTITLE23=Buffy The Vampire Slayer
TTITLE24=Button Moon (Intro)
TTITLE25=Button Moon (Outro)
TTITLE26=Cagney And Lacey
TTITLE27=Casper The Friendly Ghost
TTITLE28=Clueless
TTITLE29=Cold Feet
TTITLE30=Combat
TTITLE31=Country File
TTITLE32=Cow And Chicken
TTITLE33=Crossroads (Millennium Edition)
TTITLE34=Crystal Tipps And Alistair
TTITLE35=Dragnet
TTITLE36=Drop The Dead Donkey
TTITLE37=Duckman
TTITLE38=Fame
TTITLE39=Fantasy Island
TTITLE40=Felix The Cat
TTITLE41=Finger Bobs
TTITLE42=Formula 1 (Grand Prix BBC)
TTITLE43=Fraggle Rock
TTITLE44=The Fresh Prince Of Bel Air
TTITLE45=The Fugitive
TTITLE46=Futurama
TTITLE47=Garden Invaders
TTITLE48=Gardeners World
TTITLE49=Gary And Mike
TTITLE50=Gentle Ben
TTITLE51=The Ghost And Mrs Muir
TTITLE52=Gimme, Gimme, Gimme
TTITLE53=Ground Force
TTITLE54=Hart To Hart
TTITLE55=The Harry Enfield Show
TTITLE56=The High Chaparral
TTITLE57=The Hitch Hikers Guide To The Galaxy
TTITLE58=The Hitman And Her
TTITLE59=Hitz
TTITLE60=Hokey Wolf
TTITLE61=Home Front
TTITLE62=Home Improvement
TTITLE63=House Invaders
TTITLE64=Howdy Doody
EXTD=
EXTT0=
EXTT1=
EXTT2=
EXTT3=
EXTT4=
EXTT5=
EXTT6=
EXTT7=
EXTT8=
EXTT9=
EXTT10=
EXTT11=
EXTT12=
EXTT13=
EXTT14=
EXTT15=
EXTT16=
EXTT17=
EXTT18=
EXTT19=
EXTT20=
EXTT21=
EXTT22=
EXTT23=
EXTT24=
EXTT25=
EXTT26=
EXTT27=
EXTT28=
EXTT29=
EXTT30=
EXTT31=
EXTT32=
EXTT33=
EXTT34=
EXTT35=
EXTT36=
EXTT37=
EXTT38=
EXTT39=
EXTT40=
EXTT41=
EXTT42=
EXTT43=
EXTT44=
EXTT45=
EXTT46=
EXTT47=
EXTT48=
EXTT49=
EXTT50=
EXTT51=
EXTT52=
EXTT53=
EXTT54=
EXTT55=
EXTT56=
EXTT57=
EXTT58=
EXTT59=
EXTT60=
EXTT61=
EXTT62=
EXTT63=
EXTT64=
PLAYORDER=
